<mxfile host="app.diagrams.net" agent="Mozilla/5.0 (Windows NT 10.0; Win64; x64) AppleWebKit/537.36 (KHTML, like Gecko) Chrome/138.0.0.0 Safari/537.36 Edg/138.0.0.0" version="27.1.6">
  <diagram name="Page-1" id="cLnl78TK6VFA2XXWojxr">
    <mxGraphModel dx="1619" dy="781" grid="1" gridSize="10" guides="1" tooltips="1" connect="1" arrows="1" fold="1" page="1" pageScale="1" pageWidth="850" pageHeight="1100" math="0" shadow="0">
      <root>
        <mxCell id="0" />
        <mxCell id="1" parent="0" />
        <mxCell id="FNKCFF4zccP7PXYTYmBT-2" value="Base de Datos" style="whiteSpace=wrap;strokeWidth=2;" vertex="1" parent="1">
          <mxGeometry x="99" y="603" width="601" height="256" as="geometry" />
        </mxCell>
        <mxCell id="FNKCFF4zccP7PXYTYmBT-3" value="Backend" style="whiteSpace=wrap;strokeWidth=2;" vertex="1" parent="1">
          <mxGeometry x="22" y="449" width="767" height="104" as="geometry" />
        </mxCell>
        <mxCell id="FNKCFF4zccP7PXYTYmBT-4" value="Frontend" style="whiteSpace=wrap;strokeWidth=2;" vertex="1" parent="1">
          <mxGeometry x="20" y="146" width="770" height="230" as="geometry" />
        </mxCell>
        <mxCell id="FNKCFF4zccP7PXYTYmBT-5" value="Interfaz Web" style="whiteSpace=wrap;strokeWidth=2;" vertex="1" parent="1">
          <mxGeometry x="342" y="171" width="152" height="54" as="geometry" />
        </mxCell>
        <mxCell id="FNKCFF4zccP7PXYTYmBT-6" value="ChatBot Service" style="whiteSpace=wrap;strokeWidth=2;" vertex="1" parent="1">
          <mxGeometry x="110" y="298" width="174" height="54" as="geometry" />
        </mxCell>
        <mxCell id="FNKCFF4zccP7PXYTYmBT-7" value="Agenda Service" style="whiteSpace=wrap;strokeWidth=2;" vertex="1" parent="1">
          <mxGeometry x="333" y="298" width="169" height="54" as="geometry" />
        </mxCell>
        <mxCell id="FNKCFF4zccP7PXYTYmBT-8" value="Auth Service" style="whiteSpace=wrap;strokeWidth=2;" vertex="1" parent="1">
          <mxGeometry x="605" y="298" width="150" height="54" as="geometry" />
        </mxCell>
        <mxCell id="FNKCFF4zccP7PXYTYmBT-9" value="Evento Service" style="whiteSpace=wrap;strokeWidth=2;" vertex="1" parent="1">
          <mxGeometry x="70" y="474" width="165" height="54" as="geometry" />
        </mxCell>
        <mxCell id="FNKCFF4zccP7PXYTYmBT-10" value="Cita Service" style="whiteSpace=wrap;strokeWidth=2;" vertex="1" parent="1">
          <mxGeometry x="403" y="474" width="145" height="54" as="geometry" />
        </mxCell>
        <mxCell id="FNKCFF4zccP7PXYTYmBT-11" value="User Service" style="whiteSpace=wrap;strokeWidth=2;" vertex="1" parent="1">
          <mxGeometry x="606" y="474" width="148" height="54" as="geometry" />
        </mxCell>
        <mxCell id="FNKCFF4zccP7PXYTYmBT-12" value="MariaDB Principal" style="shape=cylinder3;boundedLbl=1;backgroundOutline=1;size=10;strokeWidth=2;whiteSpace=wrap;" vertex="1" parent="1">
          <mxGeometry x="406" y="628" width="140" height="79" as="geometry" />
        </mxCell>
        <mxCell id="FNKCFF4zccP7PXYTYmBT-13" value="MariaDB Réplica" style="shape=cylinder3;boundedLbl=1;backgroundOutline=1;size=10;strokeWidth=2;whiteSpace=wrap;" vertex="1" parent="1">
          <mxGeometry x="411" y="757" width="130" height="77" as="geometry" />
        </mxCell>
        <mxCell id="FNKCFF4zccP7PXYTYmBT-14" value="Sistema Acceso QR" style="whiteSpace=wrap;strokeWidth=2;" vertex="1" parent="1">
          <mxGeometry x="321" y="20" width="193" height="54" as="geometry" />
        </mxCell>
        <mxCell id="FNKCFF4zccP7PXYTYmBT-15" value="Consulta" style="curved=1;startArrow=none;endArrow=block;exitX=0;exitY=0.91;entryX=0.5;entryY=0;rounded=0;" edge="1" parent="1" source="FNKCFF4zccP7PXYTYmBT-5" target="FNKCFF4zccP7PXYTYmBT-6">
          <mxGeometry relative="1" as="geometry">
            <Array as="points">
              <mxPoint x="196" y="262" />
            </Array>
          </mxGeometry>
        </mxCell>
        <mxCell id="FNKCFF4zccP7PXYTYmBT-16" value="Gestiona" style="curved=1;startArrow=none;endArrow=block;exitX=0.5;exitY=1.01;entryX=0.5;entryY=0;rounded=0;" edge="1" parent="1" source="FNKCFF4zccP7PXYTYmBT-5" target="FNKCFF4zccP7PXYTYmBT-7">
          <mxGeometry relative="1" as="geometry">
            <Array as="points" />
          </mxGeometry>
        </mxCell>
        <mxCell id="FNKCFF4zccP7PXYTYmBT-17" value="Autentica" style="curved=1;startArrow=none;endArrow=block;exitX=1;exitY=0.85;entryX=0.5;entryY=0;rounded=0;" edge="1" parent="1" source="FNKCFF4zccP7PXYTYmBT-5" target="FNKCFF4zccP7PXYTYmBT-8">
          <mxGeometry relative="1" as="geometry">
            <Array as="points">
              <mxPoint x="680" y="262" />
            </Array>
          </mxGeometry>
        </mxCell>
        <mxCell id="FNKCFF4zccP7PXYTYmBT-18" value="Lee datos" style="curved=1;startArrow=none;endArrow=block;exitX=0.21;exitY=1;entryX=0.34;entryY=0;rounded=0;" edge="1" parent="1" source="FNKCFF4zccP7PXYTYmBT-6" target="FNKCFF4zccP7PXYTYmBT-9">
          <mxGeometry relative="1" as="geometry">
            <Array as="points">
              <mxPoint x="101" y="377" />
              <mxPoint x="101" y="449" />
            </Array>
          </mxGeometry>
        </mxCell>
        <mxCell id="FNKCFF4zccP7PXYTYmBT-19" value="Lee datos" style="curved=1;startArrow=none;endArrow=block;exitX=1;exitY=0.99;entryX=0.11;entryY=0;rounded=0;" edge="1" parent="1" source="FNKCFF4zccP7PXYTYmBT-6" target="FNKCFF4zccP7PXYTYmBT-10">
          <mxGeometry relative="1" as="geometry">
            <Array as="points">
              <mxPoint x="365" y="377" />
              <mxPoint x="365" y="449" />
            </Array>
          </mxGeometry>
        </mxCell>
        <mxCell id="FNKCFF4zccP7PXYTYmBT-20" value="Operaciones" style="curved=1;startArrow=none;endArrow=block;exitX=0.03;exitY=1;entryX=0.85;entryY=0;rounded=0;" edge="1" parent="1" source="FNKCFF4zccP7PXYTYmBT-7" target="FNKCFF4zccP7PXYTYmBT-9">
          <mxGeometry relative="1" as="geometry">
            <Array as="points">
              <mxPoint x="263" y="377" />
              <mxPoint x="263" y="449" />
            </Array>
          </mxGeometry>
        </mxCell>
        <mxCell id="FNKCFF4zccP7PXYTYmBT-21" value="Operaciones" style="curved=1;startArrow=none;endArrow=block;exitX=0.84;exitY=1;entryX=0.69;entryY=0;rounded=0;" edge="1" parent="1" source="FNKCFF4zccP7PXYTYmBT-7" target="FNKCFF4zccP7PXYTYmBT-10">
          <mxGeometry relative="1" as="geometry">
            <Array as="points">
              <mxPoint x="527" y="377" />
              <mxPoint x="527" y="449" />
            </Array>
          </mxGeometry>
        </mxCell>
        <mxCell id="FNKCFF4zccP7PXYTYmBT-22" value="Verifica" style="curved=1;startArrow=none;endArrow=block;exitX=0.5;exitY=1;entryX=0.5;entryY=0;rounded=0;" edge="1" parent="1" source="FNKCFF4zccP7PXYTYmBT-8" target="FNKCFF4zccP7PXYTYmBT-11">
          <mxGeometry relative="1" as="geometry">
            <Array as="points" />
          </mxGeometry>
        </mxCell>
        <mxCell id="FNKCFF4zccP7PXYTYmBT-23" value="" style="curved=1;startArrow=none;endArrow=block;exitX=0.5;exitY=1;entryX=0;entryY=0.32;rounded=0;" edge="1" parent="1" source="FNKCFF4zccP7PXYTYmBT-9" target="FNKCFF4zccP7PXYTYmBT-12">
          <mxGeometry relative="1" as="geometry">
            <Array as="points">
              <mxPoint x="152" y="603" />
            </Array>
          </mxGeometry>
        </mxCell>
        <mxCell id="FNKCFF4zccP7PXYTYmBT-24" value="" style="curved=1;startArrow=none;endArrow=block;exitX=0.5;exitY=1;entryX=0.5;entryY=0;rounded=0;" edge="1" parent="1" source="FNKCFF4zccP7PXYTYmBT-10" target="FNKCFF4zccP7PXYTYmBT-12">
          <mxGeometry relative="1" as="geometry">
            <Array as="points" />
          </mxGeometry>
        </mxCell>
        <mxCell id="FNKCFF4zccP7PXYTYmBT-25" value="" style="curved=1;startArrow=none;endArrow=block;exitX=0.5;exitY=1;entryX=1;entryY=0.22;rounded=0;" edge="1" parent="1" source="FNKCFF4zccP7PXYTYmBT-11" target="FNKCFF4zccP7PXYTYmBT-12">
          <mxGeometry relative="1" as="geometry">
            <Array as="points">
              <mxPoint x="680" y="603" />
            </Array>
          </mxGeometry>
        </mxCell>
        <mxCell id="FNKCFF4zccP7PXYTYmBT-26" value="" style="curved=1;startArrow=none;endArrow=block;exitX=0.5;exitY=1;entryX=0.5;entryY=0;rounded=0;" edge="1" parent="1" source="FNKCFF4zccP7PXYTYmBT-12" target="FNKCFF4zccP7PXYTYmBT-13">
          <mxGeometry relative="1" as="geometry">
            <Array as="points" />
          </mxGeometry>
        </mxCell>
        <mxCell id="FNKCFF4zccP7PXYTYmBT-27" value="Inicia sesión" style="curved=1;startArrow=none;endArrow=block;exitX=0.5;exitY=1;entryX=0.5;entryY=0.01;rounded=0;" edge="1" parent="1" source="FNKCFF4zccP7PXYTYmBT-14" target="FNKCFF4zccP7PXYTYmBT-5">
          <mxGeometry relative="1" as="geometry">
            <Array as="points" />
          </mxGeometry>
        </mxCell>
      </root>
    </mxGraphModel>
  </diagram>
</mxfile>
